<svg width="20" height="18" viewBox="0 0 20 18" fill="none" xmlns="http://www.w3.org/2000/svg">
<path d="M16.6664 14.6667V6.47183L17.9044 7.21459C18.299 7.45138 18.8109 7.32341 19.0477 6.92876C19.2845 6.53411 19.1565 6.02223 18.7619 5.78544L14.5769 3.27448L11.376 1.34591L11.3758 1.34583C11.1432 1.20565 10.9646 1.09807 10.8133 1.01718C10.778 0.997421 10.7421 0.979044 10.7058 0.962048C10.5798 0.900583 10.4706 0.859669 10.3584 0.834949C10.1222 0.782881 9.87739 0.782881 9.6411 0.83495C9.52864 0.859735 9.41918 0.900797 9.29281 0.962529C9.25714 0.979246 9.22192 0.997295 9.18722 1.01668C9.03569 1.09763 8.85687 1.20537 8.6237 1.34585L8.62365 1.34588L5.41785 3.27736L1.23772 5.78544C0.84307 6.02223 0.715099 6.53411 0.95189 6.92876C1.18868 7.32341 1.70056 7.45138 2.09521 7.21459L3.33311 6.47186V14.6667C3.33311 15.6002 3.33311 16.0669 3.51477 16.4234C3.67455 16.737 3.92952 16.992 4.24313 17.1518C4.59965 17.3334 5.06636 17.3334 5.99978 17.3334L7.49978 17.3334V12.3334C7.49978 10.9527 8.61906 9.83337 9.99978 9.83337C11.3805 9.83337 12.4998 10.9527 12.4998 12.3334V17.3334L13.9998 17.3334C14.9332 17.3334 15.3999 17.3334 15.7564 17.1518C16.07 16.992 16.325 16.737 16.4848 16.4234C16.6664 16.0669 16.6664 15.6002 16.6664 14.6667Z" fill="#2F80ED"/>
</svg>
