<svg width="22" height="18" viewBox="0 0 22 18" fill="none" xmlns="http://www.w3.org/2000/svg">
<path fill-rule="evenodd" clip-rule="evenodd" d="M9.04005 12.0014C9.59155 11.972 10.0625 12.3953 10.0919 12.9468C10.132 13.6995 10.1811 14.2956 10.2302 14.7615C10.2962 15.3871 10.6805 15.7672 11.2333 15.8304C12.0269 15.9211 13.2279 16 15.0002 16C16.7724 16 17.9735 15.9211 18.7671 15.8304C19.3208 15.7671 19.7041 15.3879 19.77 14.7632C19.8855 13.6692 20.0002 11.8608 20.0002 9C20.0002 6.13925 19.8855 4.33078 19.77 3.23675C19.7041 2.61206 19.3208 2.23288 18.7671 2.16959C17.9735 2.07886 16.7724 2 15.0002 2C13.2279 2 12.0269 2.07886 11.2333 2.16959C10.6805 2.23278 10.2962 2.61291 10.2302 3.23854C10.1811 3.7044 10.132 4.30055 10.0919 5.05324C10.0625 5.60474 9.59155 6.02798 9.04005 5.99858C8.48855 5.96918 8.0653 5.49827 8.0947 4.94677C8.13644 4.16393 8.18805 3.53306 8.24124 3.02877C8.39779 1.54436 9.45088 0.360315 11.0061 0.182529C11.8925 0.0812033 13.1717 -2.21986e-07 15.0002 -3.01912e-07C16.8287 -3.81837e-07 18.1079 0.081203 18.9943 0.182529C20.5486 0.360206 21.6022 1.54151 21.7589 3.02683C21.8836 4.20806 22.0002 6.08921 22.0002 9C22.0002 11.9108 21.8836 13.7919 21.7589 14.9732C21.6022 16.4585 20.5486 17.6398 18.9943 17.8175C18.1079 17.9188 16.8287 18 15.0002 18C13.1717 18 11.8925 17.9188 11.0061 17.8175C9.45089 17.6397 8.39779 16.4556 8.24124 14.9712C8.18805 14.4669 8.13644 13.8361 8.09471 13.0532C8.0653 12.5017 8.48855 12.0308 9.04005 12.0014Z" fill="#FCFCFD"/>
<path fill-rule="evenodd" clip-rule="evenodd" d="M5.20711 11.7929C5.59763 12.1834 5.59763 12.8166 5.20711 13.2071C4.81658 13.5976 4.18342 13.5976 3.79289 13.2071L0.292893 9.70711C-0.0976313 9.31658 -0.0976313 8.68342 0.292893 8.29289L3.79289 4.79289C4.18342 4.40237 4.81658 4.40237 5.20711 4.79289C5.59763 5.18342 5.59763 5.81658 5.20711 6.20711L3.41421 8L13 8C13.5523 8 14 8.44771 14 9C14 9.55228 13.5523 10 13 10L3.41421 10L5.20711 11.7929Z" fill="#FCFCFD"/>
</svg>
