<!DOCTYPE svg PUBLIC "-//W3C//DTD SVG 1.1//EN" "http://www.w3.org/Graphics/SVG/1.1/DTD/svg11.dtd">

<!-- Uploaded to: SVG Repo, www.svgrepo.com, Transformed by: SVG Repo Mixer Tools -->
<svg fill="#ffffff" width="24px" height="24px" viewBox="0 0 30 30" style="fill-rule:evenodd;clip-rule:evenodd;stroke-linejoin:round;stroke-miterlimit:2;" version="1.1" xml:space="preserve" xmlns="http://www.w3.org/2000/svg" xmlns:serif="http://www.serif.com/" xmlns:xlink="http://www.w3.org/1999/xlink" stroke="#ffffff" stroke-width="0.00032">

<g id="SVGRepo_bgCarrier" stroke-width="0"/>

<g id="SVGRepo_tracerCarrier" stroke-linecap="round" stroke-linejoin="round" stroke="#CCCCCC" stroke-width="0.064"/>

<g id="SVGRepo_iconCarrier">

<path d="M29,8c0,-1.326 -0.527,-2.598 -1.464,-3.536c-0.938,-0.937 -2.21,-1.464 -3.536,-1.464c-4.439,-0 -11.561,-0 -16,-0c-1.326,-0 -2.598,0.527 -3.536,1.464c-0.937,0.938 -1.464,2.21 -1.464,3.536c-0,4.439 -0,11.561 0,16c-0,1.326 0.527,2.598 1.464,3.536c0.938,0.937 2.21,1.464 3.536,1.464c4.439,-0 11.561,0 16,0c1.326,0 2.598,-0.527 3.536,-1.464c0.937,-0.938 1.464,-2.21 1.464,-3.536l-0,-16Zm-9.835,2.983l-6.529,3.585c-0.509,-0.934 -1.499,-1.568 -2.636,-1.568c-1.656,-0 -3,1.344 -3,3c0,1.656 1.344,3 3,3c1.101,0 2.064,-0.594 2.586,-1.48l6.547,3.595c-0.086,0.28 -0.133,0.577 -0.133,0.885c0,1.656 1.344,3 3,3c1.656,0 3,-1.344 3,-3c0,-1.656 -1.344,-3 -3,-3c-0.612,0 -1.181,0.183 -1.655,0.498l-6.267,-3.44l6.364,-3.494c0.454,0.276 0.988,0.436 1.558,0.436c1.656,0 3,-1.344 3,-3c0,-1.656 -1.344,-3 -3,-3c-1.656,0 -3,1.344 -3,3c0,0.344 0.058,0.675 0.165,0.983Z"/>

<g id="Icon"/>

</g>

</svg>