<svg width="48" height="48" viewBox="0 0 48 48" fill="none" xmlns="http://www.w3.org/2000/svg">
<path fill-rule="evenodd" clip-rule="evenodd" d="M6 10C6 5.58172 9.58172 2 14 2H30.6863C32.808 2 34.8429 2.84286 36.3431 4.34315L39.6569 7.65686C41.1571 9.15715 42 11.192 42 13.3137V38C42 42.4183 38.4183 46 34 46H14C9.58172 46 6 42.4183 6 38V10ZM38 16V38C38 40.2091 36.2091 42 34 42H14C11.7909 42 10 40.2091 10 38V10C10 7.79086 11.7909 6 14 6H28V10C28 13.3137 30.6863 16 34 16H38ZM37.7781 12C37.5817 11.4352 37.2593 10.9162 36.8284 10.4853L33.5147 7.17157C33.0839 6.74071 32.5648 6.41828 32 6.22188V10C32 11.1046 32.8954 12 34 12H37.7781Z" fill="#3B71FE"/>
<path d="M23.2344 18.1518C22.9985 18.2494 22.7775 18.394 22.5858 18.5858L16.5858 24.5858C15.8047 25.3668 15.8047 26.6332 16.5858 27.4142C17.3668 28.1953 18.6332 28.1953 19.4142 27.4142L22 24.8284V34C22 35.1046 22.8954 36 24 36C25.1046 36 26 35.1046 26 34V24.8284L28.5858 27.4142C29.3668 28.1953 30.6332 28.1953 31.4142 27.4142C32.1953 26.6332 32.1953 25.3668 31.4142 24.5858L25.4142 18.5858C24.8249 17.9965 23.9594 17.8518 23.2344 18.1518Z" fill="#3B71FE"/>
</svg>
